<svg width="21" height="21" viewBox="0 0 21 21" fill="none" xmlns="http://www.w3.org/2000/svg">
<path d="M19.222 11.2678V4.57925C19.222 3.41921 18.3903 2.4514 17.292 2.23695V1.85138C17.292 1.23858 16.7936 0.740234 16.1808 0.740234H15.3619C14.7491 0.740234 14.2507 1.23858 14.2507 1.85138V2.19028H4.74765V1.85138C4.74765 1.23858 4.2493 0.740234 3.6365 0.740234H2.81758C2.20478 0.740234 1.70643 1.23858 1.70643 1.85138V2.23695C0.608062 2.45196 -0.223633 3.41921 -0.223633 4.57925V16.3463C-0.223633 17.6636 0.84807 18.7353 2.16534 18.7353H13.0046C13.9174 19.9503 15.3663 20.7409 16.9997 20.7409C19.7565 20.7409 21.9999 18.4981 21.9999 15.7407C21.9999 13.7823 20.8654 12.0878 19.222 11.2678ZM15.3625 1.85083H16.1814V3.63478H15.3625V1.85083ZM2.81814 1.85083H3.63705V3.63478H2.81814V1.85083ZM1.70699 3.38977V3.63478C1.70699 4.24758 2.20534 4.74593 2.81814 4.74593H3.63705C4.24985 4.74593 4.7482 4.24758 4.7482 3.63478V3.30088H14.2513V3.63478C14.2513 4.24758 14.7497 4.74593 15.3625 4.74593H16.1814C16.7942 4.74593 17.2925 4.24758 17.2925 3.63478V3.38977C17.7703 3.57477 18.1114 4.03646 18.1114 4.5787V6.04708H0.888071V4.5787C0.888071 4.03646 1.22919 3.57477 1.70699 3.38977ZM2.16589 17.6236C1.46142 17.6236 0.888071 17.0508 0.888071 16.3458V7.15823H18.1109V10.8689C17.7531 10.7872 17.382 10.74 16.9997 10.74C14.243 10.74 11.9996 12.9829 11.9996 15.7402C11.9996 16.4063 12.1329 17.0413 12.3707 17.6236H2.16589ZM16.9997 19.6292C14.8552 19.6292 13.1107 17.8841 13.1107 15.7402C13.1107 13.5962 14.8552 11.8512 16.9997 11.8512C19.1442 11.8512 20.8887 13.5962 20.8887 15.7402C20.8887 17.8841 19.1442 19.6292 16.9997 19.6292Z" fill="#2F2F2F" stroke="#2F2F2F" stroke-width="0.9"/>
<path d="M17.5555 15.499V13.5067C17.5555 13.1995 17.3066 12.9512 16.9999 12.9512C16.6932 12.9512 16.4443 13.1995 16.4443 13.5067V15.729C16.4443 15.8768 16.5027 16.0179 16.6071 16.1218L18.1333 17.648C18.2416 17.7563 18.3838 17.8108 18.5261 17.8108C18.6683 17.8108 18.8105 17.7563 18.9189 17.648C19.1361 17.4308 19.1361 17.0796 18.9189 16.8624L17.5555 15.499Z" fill="#2F2F2F" stroke="#2F2F2F" stroke-width="0.7"/>
</svg>
