<svg width="60" height="60" viewBox="0 0 60 60" fill="none" xmlns="http://www.w3.org/2000/svg">
<rect width="60" height="60" rx="20" fill="#E7EDFF"/>
<path d="M34.5547 39.9995V22.2222C34.5547 21.6328 34.3206 21.0676 33.9038 20.6509C33.4871 20.2341 32.9219 20 32.3325 20H27.8882C27.2988 20 26.7336 20.2341 26.3169 20.6509C25.9001 21.0676 25.666 21.6328 25.666 22.2222V39.9995" stroke="#0A69FF" stroke-width="2" stroke-linecap="round" stroke-linejoin="round"/>
<path d="M38.9995 24.4443H21.2222C19.9949 24.4443 19 25.4392 19 26.6665V37.7774C19 39.0046 19.9949 39.9995 21.2222 39.9995H38.9995C40.2268 39.9995 41.2217 39.0046 41.2217 37.7774V26.6665C41.2217 25.4392 40.2268 24.4443 38.9995 24.4443Z" stroke="#0A69FF" stroke-width="2" stroke-linecap="round" stroke-linejoin="round"/>
</svg>
