<svg width="50" height="50" viewBox="0 0 50 50" fill="none" xmlns="http://www.w3.org/2000/svg">
<rect width="50" height="50" rx="20" fill="#FFE0EB"/>
<path d="M28.7041 33.3333V18.5188C28.7041 18.0277 28.509 17.5567 28.1617 17.2094C27.8145 16.8621 27.3434 16.667 26.8523 16.667H23.1487C22.6576 16.667 22.1865 16.8621 21.8393 17.2094C21.492 17.5567 21.2969 18.0277 21.2969 18.5188V33.3333" stroke="#FF075F" stroke-width="2" stroke-linecap="round" stroke-linejoin="round"/>
<path d="M32.4075 20.3711H17.593C16.5703 20.3711 15.7412 21.2002 15.7412 22.2229V31.482C15.7412 32.5047 16.5703 33.3338 17.593 33.3338H32.4075C33.4302 33.3338 34.2593 32.5047 34.2593 31.482V22.2229C34.2593 21.2002 33.4302 20.3711 32.4075 20.3711Z" stroke="#FF075F" stroke-width="2" stroke-linecap="round" stroke-linejoin="round"/>
</svg>
