<svg width="17" height="15" viewBox="0 0 17 15" fill="none" xmlns="http://www.w3.org/2000/svg">
<path d="M11.6669 6.66865L13.3336 8.33534L16.6669 5.00195M11.6669 15.0021V13.3354C11.6669 12.4514 11.3157 11.6035 10.6905 10.9784C10.0654 10.3532 9.21755 10.002 8.33347 10.002H3.33339C2.44932 10.002 1.60146 10.3532 0.976327 10.9784C0.351195 11.6035 0 12.4514 0 13.3354V15.0021" stroke="#052338" stroke-width="2" stroke-linecap="round" stroke-linejoin="round"/>
<path d="M5.83437 6.66678C7.67535 6.66678 9.16776 5.17437 9.16776 3.33339C9.16776 1.49241 7.67535 0 5.83437 0C3.99339 0 2.50098 1.49241 2.50098 3.33339C2.50098 5.17437 3.99339 6.66678 5.83437 6.66678Z" stroke="#052338" stroke-width="2" stroke-linecap="round" stroke-linejoin="round"/>
</svg>
