<svg width="60" height="60" viewBox="0 0 60 60" fill="none" xmlns="http://www.w3.org/2000/svg">
<rect width="60" height="60" rx="20" fill="#E7EDFF"/>
<path d="M41 30H38.272C37.7913 29.999 37.3234 30.1484 36.94 30.4252C36.5566 30.7021 36.2788 31.0912 36.149 31.533L33.564 40.311C33.5473 40.3655 33.5126 40.4134 33.465 40.4475C33.4174 40.4816 33.3595 40.5 33.3 40.5C33.2405 40.5 33.1826 40.4816 33.135 40.4475C33.0874 40.4134 33.0527 40.3655 33.036 40.311L26.964 19.689C26.9473 19.6345 26.9126 19.5866 26.865 19.5525C26.8174 19.5184 26.7595 19.5 26.7 19.5C26.6405 19.5 26.5826 19.5184 26.535 19.5525C26.4874 19.5866 26.4527 19.6345 26.436 19.689L23.851 28.467C23.7217 28.9071 23.4455 29.2949 23.0644 29.5716C22.6832 29.8483 22.2179 29.9987 21.739 30H19" stroke="#0A69FF" stroke-width="2" stroke-linecap="round" stroke-linejoin="round"/>
</svg>
