<svg width="28" height="28" viewBox="0 0 28 28" fill="none" xmlns="http://www.w3.org/2000/svg">
<path d="M27.912 18.0889L20.662 15.3701C20.3293 15.2462 19.9548 15.3266 19.7029 15.5779L17.5155 17.7652C14.4763 15.6369 11.8634 13.024 9.73483 9.98448L11.9218 7.79715C12.173 7.54594 12.2542 7.17075 12.1295 6.83798L9.41075 -0.412025C9.27844 -0.765825 8.94023 -1 8.5625 -1H8.05573C5.80315 -1 3.68506 -0.12275 2.09224 1.47007C0.420387 3.14156 -0.5 5.36405 -0.5 7.72755C-0.5 9.29246 -0.083125 10.8345 0.705675 12.1863C4.22664 18.2219 9.27771 23.2734 15.3133 26.7943C16.6658 27.5831 18.2075 28 19.7725 28C22.1363 28 24.3584 27.0793 26.0299 25.4081C27.6227 23.8153 28.5 21.6976 28.5 19.4443V18.9375C28.5 18.5598 28.2658 18.2216 27.912 18.0889ZM24.7481 24.1263C23.4188 25.4556 21.652 26.1875 19.7725 26.1875C18.528 26.1875 17.302 25.8558 16.2268 25.2287C10.4609 21.8654 5.63495 17.0394 2.27095 11.2732C1.64382 10.198 1.3125 8.97201 1.3125 7.72755C1.3125 5.84799 2.04475 4.0808 3.37368 2.75151C4.59603 1.52916 6.21169 0.843675 7.93501 0.813225L10.2278 6.92788L7.92196 9.2341C7.61638 9.53932 7.56889 10.0182 7.8085 10.3774C10.2807 14.0858 13.4146 17.2196 17.1222 19.6911C17.4818 19.9311 17.9607 19.8833 18.2655 19.5777L20.5718 17.2718L26.6861 19.5646C26.656 21.2887 25.9701 22.9043 24.7481 24.1263Z" fill="white"/>
</svg>
