<svg width="28" height="28" viewBox="0 0 28 28" fill="none" xmlns="http://www.w3.org/2000/svg">
<path d="M18.3333 24V21.6667C18.3333 20.429 17.8417 19.242 16.9665 18.3668C16.0913 17.4917 14.9043 17 13.6667 17H6.66667C5.42899 17 4.242 17.4917 3.36684 18.3668C2.49167 19.242 2 20.429 2 21.6667V24" stroke="white" stroke-width="2.33333" stroke-linecap="round" stroke-linejoin="round"/>
<path d="M10.1667 12.3333C12.744 12.3333 14.8333 10.244 14.8333 7.66667C14.8333 5.08934 12.744 3 10.1667 3C7.58934 3 5.5 5.08934 5.5 7.66667C5.5 10.244 7.58934 12.3333 10.1667 12.3333Z" stroke="white" stroke-width="2.33333" stroke-linecap="round" stroke-linejoin="round"/>
<path d="M25.333 23.9999V21.6666C25.3322 20.6326 24.9881 19.6282 24.3546 18.811C23.7211 17.9938 22.8342 17.4101 21.833 17.1516" stroke="white" stroke-width="2.33333" stroke-linecap="round" stroke-linejoin="round"/>
<path d="M18.333 3.15161C19.3368 3.40863 20.2266 3.99243 20.8619 4.81097C21.4973 5.62952 21.8422 6.63625 21.8422 7.67244C21.8422 8.70864 21.4973 9.71537 20.8619 10.5339C20.2266 11.3525 19.3368 11.9363 18.333 12.1933" stroke="white" stroke-width="2.33333" stroke-linecap="round" stroke-linejoin="round"/>
</svg>
